<?xml version="1.0" standalone="no"?>
<!DOCTYPE svg PUBLIC "-//W3C//DTD SVG 20010904//EN"
 "http://www.w3.org/TR/2001/REC-SVG-20010904/DTD/svg10.dtd">
<svg version="1.0" xmlns="http://www.w3.org/2000/svg"
 width="500.000000pt" height="500.000000pt" viewBox="0 0 500.000000 500.000000"
 preserveAspectRatio="xMidYMid meet">

<g transform="translate(0.000000,500.000000) scale(0.100000,-0.100000)"
fill="#000000" stroke="none">
<path d="M1250 3765 c-679 -603 -1235 -1099 -1235 -1104 0 -13 247 -292 256
-289 4 2 505 444 1112 983 608 539 1109 981 1114 982 5 2 508 -439 1117 -979
609 -541 1111 -984 1116 -986 8 -3 255 275 255 289 0 14 -2469 2199 -2485
2199 -8 0 -571 -493 -1250 -1095z"/>
<path d="M750 4079 l0 -471 103 94 c56 51 195 178 308 280 l206 187 6 107 c4
59 7 145 7 191 l0 83 -315 0 -315 0 0 -471z"/>
<path d="M1623 3237 l-872 -772 -1 -1122 c0 -849 3 -1128 12 -1148 26 -58 -79
-55 1738 -55 1817 0 1712 -3 1738 55 9 20 12 299 12 1148 l-1 1122 -869 770
c-478 423 -873 771 -877 772 -4 2 -400 -345 -880 -770z m973 -612 c112 -45
176 -183 138 -297 -21 -65 -92 -138 -150 -156 -98 -29 -188 -8 -255 58 -82 82
-97 176 -44 280 29 57 57 82 125 114 45 21 64 25 105 20 28 -4 64 -12 81 -19z
m-611 -94 c52 -24 121 -99 134 -147 33 -119 -21 -245 -129 -299 -23 -12 -58
-18 -101 -18 -118 0 -201 63 -235 180 -34 117 35 250 151 291 48 17 136 14
180 -7z m1242 -9 c137 -71 173 -257 70 -369 -59 -64 -108 -87 -187 -86 -98 0
-179 51 -224 140 -22 44 -21 147 3 198 24 52 86 110 136 130 53 20 149 14 202
-13z m-1588 -324 c45 -59 101 -113 132 -128 99 -51 216 -31 302 51 40 38 57
49 74 44 13 -3 46 6 79 20 68 30 78 31 114 5 51 -36 103 -52 168 -52 53 0 72
6 127 37 70 39 76 39 152 4 24 -12 51 -17 65 -14 18 5 34 -4 75 -44 85 -82
203 -102 302 -51 37 18 121 101 121 119 0 33 107 2 218 -65 89 -52 113 -105
71 -158 -30 -38 -77 -35 -150 10 -81 49 -94 39 -17 -14 52 -34 71 -42 110 -42
41 0 49 4 75 36 25 31 37 37 100 49 79 15 143 44 229 105 65 45 99 50 138 19
20 -16 26 -29 26 -60 0 -45 -13 -60 -103 -122 -147 -101 -348 -143 -483 -100
-30 9 -57 14 -60 10 -4 -4 3 -71 15 -149 12 -79 29 -190 37 -248 14 -97 116
-526 149 -630 29 -89 125 -489 125 -521 0 -41 -34 -95 -73 -115 -40 -21 -112
-12 -145 19 -34 31 -46 59 -71 162 -12 50 -28 115 -36 145 -62 238 -109 425
-121 477 -7 35 -20 78 -27 96 -8 18 -17 54 -21 80 -7 47 -8 48 -39 45 l-32 -3
-5 -475 c-3 -261 -9 -483 -13 -492 -5 -9 -24 -28 -42 -42 -62 -47 -154 -27
-193 42 -20 36 -21 52 -25 582 -3 464 -7 556 -21 620 -9 41 -26 138 -37 215
-12 77 -23 156 -26 175 -3 19 -16 48 -29 63 -13 16 -24 32 -24 36 0 5 18 20
40 35 42 28 51 40 23 29 -39 -14 -105 -66 -114 -90 -5 -14 -9 -350 -9 -830 0
-724 -2 -808 -16 -839 -20 -43 -65 -67 -121 -66 -47 0 -77 17 -104 59 -18 26
-19 57 -19 476 0 390 -2 448 -15 453 -8 4 -22 1 -30 -6 -13 -11 -15 -75 -15
-452 0 -479 0 -483 -58 -511 -72 -37 -129 -25 -176 36 l-26 34 0 807 c0 881 2
852 -58 895 -44 31 -60 26 -27 -9 l29 -30 -27 -28 c-21 -22 -29 -44 -38 -107
-6 -44 -20 -138 -31 -210 -46 -301 -48 -323 -48 -818 0 -521 0 -520 -57 -561
-40 -29 -105 -33 -146 -7 -66 41 -67 47 -67 560 l0 459 -25 6 c-43 11 -36 26
-94 -209 -99 -398 -182 -717 -196 -751 -20 -50 -57 -76 -114 -82 -39 -3 -52 1
-88 27 -53 38 -61 75 -41 174 16 76 105 425 188 738 28 103 61 260 75 355 14
93 32 211 41 262 21 122 20 124 -53 107 -69 -17 -170 -19 -233 -4 -113 25
-251 94 -322 162 -39 36 -39 97 -2 126 39 31 72 26 136 -19 87 -60 153 -90
230 -105 59 -11 75 -19 103 -49 26 -29 40 -36 70 -36 44 0 94 22 126 56 30 32
20 30 -39 -6 -61 -37 -104 -39 -137 -5 -29 28 -31 45 -9 91 18 39 64 69 182
120 88 38 88 38 101 22z"/>
</g>
</svg>
