<?xml version="1.0" standalone="no"?>
<!DOCTYPE svg PUBLIC "-//W3C//DTD SVG 20010904//EN"
 "http://www.w3.org/TR/2001/REC-SVG-20010904/DTD/svg10.dtd">
<svg version="1.0" xmlns="http://www.w3.org/2000/svg"
 width="500.000000pt" height="500.000000pt" viewBox="0 0 500.000000 500.000000"
 preserveAspectRatio="xMidYMid meet">
<metadata>
Created by potrace 1.14, written by Peter Selinger 2001-2017
</metadata>
<g transform="translate(0.000000,500.000000) scale(0.100000,-0.100000)"
fill="#000000" stroke="none">
<path d="M1525 3879 c-528 -468 -966 -856 -973 -863 -10 -10 7 -35 90 -129
l103 -116 30 28 c121 114 1717 1521 1725 1521 8 0 529 -460 1685 -1486 l70
-62 99 113 c55 62 99 115 99 120 -2 14 -1938 1725 -1953 1725 -8 0 -447 -383
-975 -851z"/>
<path d="M1125 4477 c-3 -6 -4 -173 -3 -369 l3 -357 241 219 241 218 6 78 c4
42 7 110 7 151 l0 73 -245 0 c-188 0 -247 -3 -250 -13z"/>
<path d="M1803 3452 l-683 -607 0 -883 0 -884 29 -29 29 -29 1321 0 1320 0 28
24 28 24 2 889 3 888 -681 604 c-375 332 -689 605 -698 607 -10 2 -280 -232
-698 -604z m807 -496 c116 -76 102 -270 -23 -326 -172 -79 -341 95 -254 261
51 96 183 127 277 65z m-514 -55 c91 -42 132 -136 100 -236 -20 -65 -61 -104
-125 -121 -127 -33 -241 54 -241 183 0 139 140 231 266 174z m937 8 c43 -12
101 -59 123 -100 17 -33 19 -116 3 -156 -26 -68 -97 -116 -175 -116 -168 0
-256 190 -146 313 35 39 93 69 137 70 11 0 37 -5 58 -11z m-1174 -310 c50 -59
91 -79 156 -79 57 0 111 22 153 63 19 18 45 33 60 33 15 1 47 10 72 19 l46 18
42 -28 c62 -41 149 -42 224 -1 l53 29 48 -22 c27 -12 56 -19 66 -16 11 3 27
-6 47 -26 43 -45 95 -69 154 -69 70 0 109 19 161 79 l45 51 41 -14 c59 -21
116 -51 152 -81 36 -31 41 -73 11 -100 -27 -25 -64 -22 -110 9 -22 14 -45 26
-52 26 -7 0 12 -16 42 -35 67 -43 102 -45 138 -6 20 21 43 32 87 41 57 11 107
35 183 86 40 28 69 30 100 8 37 -25 29 -66 -20 -109 -119 -102 -297 -149 -423
-110 -27 8 -50 13 -51 12 -1 -1 7 -56 17 -122 10 -66 24 -156 30 -200 5 -44
32 -165 60 -270 27 -104 75 -291 106 -414 l56 -224 -18 -34 c-23 -42 -46 -55
-98 -55 -44 1 -78 26 -96 70 -6 15 -24 81 -40 147 -28 113 -104 409 -139 538
-13 49 -18 57 -38 57 l-24 0 0 -360 c0 -398 -2 -415 -59 -445 -40 -20 -91 -11
-123 22 l-23 25 -6 421 c-5 396 -7 432 -33 587 -36 221 -47 272 -63 291 -20
24 -16 35 20 58 17 11 28 21 22 21 -15 0 -78 -39 -92 -58 -10 -12 -13 -160
-13 -660 0 -583 -2 -647 -17 -672 -35 -60 -108 -67 -159 -16 l-34 34 0 356 c0
349 0 356 -20 356 -20 0 -20 -7 -20 -356 l0 -356 -34 -34 c-26 -26 -42 -34
-71 -34 -29 0 -45 8 -71 34 l-34 34 0 647 0 647 -34 34 c-19 19 -40 34 -47 33
-8 0 -5 -7 9 -16 27 -19 27 -28 3 -59 -13 -16 -22 -49 -26 -92 -4 -37 -13
-104 -21 -150 -42 -252 -44 -281 -44 -667 l0 -381 -27 -26 c-63 -60 -152 -37
-173 43 -7 25 -11 106 -9 198 1 86 1 242 0 347 -1 170 -3 193 -18 198 -9 4
-22 1 -28 -6 -6 -7 -40 -128 -75 -268 -112 -453 -125 -498 -151 -519 -55 -45
-139 -27 -165 35 -12 28 -12 43 0 96 20 89 89 363 142 558 38 143 83 391 101
554 l6 49 -29 -7 c-119 -28 -230 -14 -344 44 -124 62 -173 136 -118 174 25 18
74 21 83 6 16 -25 146 -91 201 -101 45 -8 66 -18 87 -41 24 -27 33 -30 67 -25
39 5 85 32 94 54 3 7 -12 1 -34 -13 -46 -31 -83 -34 -110 -9 -50 45 0 112 122
163 40 17 75 32 78 32 3 0 25 -23 49 -51z"/>
<path d="M900 560 l0 -180 50 0 50 0 0 75 0 75 55 0 55 0 0 -75 0 -75 50 0 50
0 0 180 0 180 -50 0 -50 0 0 -65 0 -65 -55 0 -55 0 0 65 0 65 -50 0 -50 0 0
-180z"/>
<path d="M2540 560 l0 -180 46 0 46 0 -4 127 c-2 69 -2 120 1 112 2 -8 19 -63
36 -124 l32 -110 48 0 48 0 34 119 c18 65 34 120 36 122 1 2 1 -53 -1 -121
l-4 -125 46 0 46 0 0 180 0 180 -64 0 -65 0 -16 -57 c-42 -147 -58 -197 -61
-188 -2 6 -19 62 -37 125 l-34 115 -66 3 -67 3 0 -181z"/>
<path d="M3380 690 c-7 -17 -24 -38 -37 -47 -29 -19 -31 -53 -3 -53 18 0 20
-7 20 -79 0 -104 19 -131 90 -131 68 0 80 7 80 45 0 31 -2 33 -32 31 l-33 -1
-3 68 -3 67 31 0 c28 0 30 3 30 35 0 32 -2 35 -29 35 -25 0 -30 4 -33 28 -2
22 -9 28 -34 30 -27 3 -33 -1 -44 -28z"/>
<path d="M1363 659 c-95 -28 -123 -171 -48 -246 30 -30 39 -33 89 -33 32 0 70
7 85 15 79 40 80 209 2 250 -38 19 -91 25 -128 14z m81 -85 c10 -27 7 -99 -6
-112 -32 -32 -68 -1 -68 58 0 17 5 40 10 51 13 23 55 25 64 3z"/>
<path d="M2010 660 c-59 -14 -87 -70 -59 -122 6 -11 35 -31 65 -44 30 -13 54
-28 54 -34 0 -13 -71 -13 -104 0 -25 9 -26 8 -26 -29 0 -46 9 -51 91 -51 87 0
128 27 129 83 0 44 -16 65 -78 96 -46 24 -53 31 -39 37 10 4 34 2 53 -4 32
-10 35 -9 49 18 14 27 14 30 -2 38 -28 15 -95 20 -133 12z"/>
<path d="M2284 651 c-95 -44 -97 -210 -3 -258 29 -15 127 -17 163 -3 20 7 26
16 26 41 0 29 -2 30 -31 24 -68 -15 -129 -3 -129 26 0 5 38 9 85 9 l85 0 0 45
c0 82 -34 121 -112 131 -30 3 -55 -1 -84 -15z m90 -57 c33 -13 17 -34 -24 -34
-38 0 -40 2 -30 20 11 21 27 25 54 14z"/>
<path d="M3101 659 c-57 -11 -66 -21 -51 -50 7 -13 14 -25 15 -27 2 -2 21 2
44 9 32 10 43 9 56 -1 22 -18 18 -30 -11 -30 -48 0 -115 -22 -129 -43 -21 -30
-18 -80 6 -111 17 -21 29 -26 65 -26 25 0 56 7 70 17 25 16 27 16 36 0 6 -11
22 -17 45 -17 l36 0 -5 109 c-5 126 -18 154 -75 170 -42 12 -41 12 -102 0z
m79 -174 c0 -19 -39 -45 -57 -38 -23 9 -11 46 17 54 29 7 40 3 40 -16z"/>
<path d="M3644 651 c-95 -44 -97 -210 -3 -258 29 -15 127 -17 163 -3 20 7 26
16 26 41 0 29 -2 30 -31 24 -68 -15 -129 -3 -129 26 0 5 38 9 85 9 l85 0 0 45
c0 82 -34 121 -112 131 -30 3 -55 -1 -84 -15z m90 -57 c33 -13 17 -34 -24 -34
-38 0 -40 2 -30 20 11 21 27 25 54 14z"/>
<path d="M3960 660 c-59 -14 -87 -70 -59 -122 6 -11 35 -31 65 -44 30 -13 54
-28 54 -34 0 -13 -71 -13 -104 0 -25 9 -26 8 -26 -29 0 -46 9 -51 91 -51 87 0
128 27 129 83 0 44 -16 65 -78 96 -46 24 -53 31 -39 37 10 4 34 2 53 -4 32
-10 35 -9 49 18 14 27 14 30 -2 38 -28 15 -95 20 -133 12z"/>
<path d="M1600 573 c0 -104 13 -157 43 -178 27 -19 97 -19 123 0 25 19 34 19
34 0 0 -11 11 -15 40 -15 l40 0 0 140 0 140 -50 0 -50 0 0 -83 c0 -85 -15
-127 -45 -127 -25 0 -35 36 -35 124 l0 86 -50 0 -50 0 0 -87z"/>
</g>
</svg>
