<?xml version="1.0" encoding="UTF-8" standalone="no"?>
<svg
   xmlns:dc="http://purl.org/dc/elements/1.1/"
   xmlns:cc="http://creativecommons.org/ns#"
   xmlns:rdf="http://www.w3.org/1999/02/22-rdf-syntax-ns#"
   xmlns:svg="http://www.w3.org/2000/svg"
   xmlns="http://www.w3.org/2000/svg"
   xmlns:sodipodi="http://sodipodi.sourceforge.net/DTD/sodipodi-0.dtd"
   xmlns:inkscape="http://www.inkscape.org/namespaces/inkscape"
   version="1.0"
   width="500.000000pt"
   height="500.000000pt"
   viewBox="0 0 500.000000 500.000000"
   preserveAspectRatio="xMidYMid meet"
   id="svg5135"
   sodipodi:docname="Logo-Without-Text.svg"
   inkscape:version="0.92.4 (5da689c313, 2019-01-14)">
  <metadata
     id="metadata5141">
    <rdf:RDF>
      <cc:Work
         rdf:about="">
        <dc:format>image/svg+xml</dc:format>
        <dc:type
           rdf:resource="http://purl.org/dc/dcmitype/StillImage" />
      </cc:Work>
    </rdf:RDF>
  </metadata>
  <defs
     id="defs5139" />
  <sodipodi:namedview
     pagecolor="#ffffff"
     bordercolor="#666666"
     borderopacity="1"
     objecttolerance="10"
     gridtolerance="10"
     guidetolerance="10"
     inkscape:pageopacity="0"
     inkscape:pageshadow="2"
     inkscape:window-width="1920"
     inkscape:window-height="1001"
     id="namedview5137"
     showgrid="false"
     inkscape:zoom="1.2375"
     inkscape:cx="333.33333"
     inkscape:cy="333.33333"
     inkscape:window-x="-9"
     inkscape:window-y="-9"
     inkscape:window-maximized="1"
     inkscape:current-layer="svg5135" />
  <path
     style="fill:#ffffff;stroke:none;stroke-width:0.1;stroke-opacity:1;fill-opacity:1"
     inkscape:connector-curvature="0"
     id="path5127"
     d="M 125,123.5 C 57.1,183.8 1.5,233.4 1.5,233.9 c 0,1.3 24.7,29.2 25.6,28.9 0.4,-0.2 50.5,-44.4 111.2,-98.3 60.8,-53.9 110.9,-98.1 111.4,-98.2 0.5,-0.2 50.8,43.9 111.7,97.9 60.9,54.1 111.1,98.4 111.6,98.6 0.8,0.3 25.5,-27.5 25.5,-28.9 C 498.5,232.5 251.6,14 250,14 249.2,14 192.9,63.3 125,123.5 Z" />
  <path
     style="fill:#ffffff;stroke:none;stroke-width:0.1;fill-opacity:1"
     inkscape:connector-curvature="0"
     id="path5129"
     d="m 75,92.1 v 47.1 l 10.3,-9.4 c 5.6,-5.1 19.5,-17.8 30.8,-28 l 20.6,-18.7 0.6,-10.7 C 137.7,66.5 138,57.9 138,53.3 V 45 H 106.5 75 Z" />
  <path
     style="fill:#ffffff;stroke:none;stroke-width:0.1;fill-opacity:1"
     inkscape:connector-curvature="0"
     id="path5131"
     d="M 162.3,176.3 75.1,253.5 75,365.7 c 0,84.9 0.3,112.8 1.2,114.8 2.6,5.8 -7.9,5.5 173.8,5.5 181.7,0 171.2,0.3 173.8,-5.5 0.9,-2 1.2,-29.9 1.2,-114.8 l -0.1,-112.2 -86.9,-77 c -47.8,-42.3 -87.3,-77.1 -87.7,-77.2 -0.4,-0.2 -40,34.5 -88,77 z m 97.3,61.2 c 11.2,4.5 17.6,18.3 13.8,29.7 -2.1,6.5 -9.2,13.8 -15,15.6 -9.8,2.9 -18.8,0.8 -25.5,-5.8 -8.2,-8.2 -9.7,-17.6 -4.4,-28 2.9,-5.7 5.7,-8.2 12.5,-11.4 4.5,-2.1 6.4,-2.5 10.5,-2 2.8,0.4 6.4,1.2 8.1,1.9 z m -61.1,9.4 c 5.2,2.4 12.1,9.9 13.4,14.7 3.3,11.9 -2.1,24.5 -12.9,29.9 -2.3,1.2 -5.8,1.8 -10.1,1.8 -11.8,0 -20.1,-6.3 -23.5,-18 -3.4,-11.7 3.5,-25 15.1,-29.1 4.8,-1.7 13.6,-1.4 18,0.7 z m 124.2,0.9 c 13.7,7.1 17.3,25.7 7,36.9 -5.9,6.4 -10.8,8.7 -18.7,8.6 -9.8,0 -17.9,-5.1 -22.4,-14 -2.2,-4.4 -2.1,-14.7 0.3,-19.8 2.4,-5.2 8.6,-11 13.6,-13 5.3,-2 14.9,-1.4 20.2,1.3 z m -158.8,32.4 c 4.5,5.9 10.1,11.3 13.2,12.8 9.9,5.1 21.6,3.1 30.2,-5.1 4,-3.8 5.7,-4.9 7.4,-4.4 1.3,0.3 4.6,-0.6 7.9,-2 6.8,-3 7.8,-3.1 11.4,-0.5 5.1,3.6 10.3,5.2 16.8,5.2 5.3,0 7.2,-0.6 12.7,-3.7 7,-3.9 7.6,-3.9 15.2,-0.4 2.4,1.2 5.1,1.7 6.5,1.4 1.8,-0.5 3.4,0.4 7.5,4.4 8.5,8.2 20.3,10.2 30.2,5.1 3.7,-1.8 12.1,-10.1 12.1,-11.9 0,-3.3 10.7,-0.2 21.8,6.5 8.9,5.2 11.3,10.5 7.1,15.8 -3,3.8 -7.7,3.5 -15,-1 -8.1,-4.9 -9.4,-3.9 -1.7,1.4 5.2,3.4 7.1,4.2 11,4.2 4.1,0 4.9,-0.4 7.5,-3.6 2.5,-3.1 3.7,-3.7 10,-4.9 7.9,-1.5 14.3,-4.4 22.9,-10.5 6.5,-4.5 9.9,-5 13.8,-1.9 2,1.6 2.6,2.9 2.6,6 0,4.5 -1.3,6 -10.3,12.2 -14.7,10.1 -34.8,14.3 -48.3,10 -3,-0.9 -5.7,-1.4 -6,-1 -0.4,0.4 0.3,7.1 1.5,14.9 1.2,7.9 2.9,19 3.7,24.8 1.4,9.7 11.6,52.6 14.9,63 2.9,8.9 12.5,48.9 12.5,52.1 0,4.1 -3.4,9.5 -7.3,11.5 -4,2.1 -11.2,1.2 -14.5,-1.9 -3.4,-3.1 -4.6,-5.9 -7.1,-16.2 -1.2,-5 -2.8,-11.5 -3.6,-14.5 -6.2,-23.8 -10.9,-42.5 -12.1,-47.7 -0.7,-3.5 -2,-7.8 -2.7,-9.6 -0.8,-1.8 -1.7,-5.4 -2.1,-8 -0.7,-4.7 -0.8,-4.8 -3.9,-4.5 l -3.2,0.3 -0.5,47.5 c -0.3,26.1 -0.9,48.3 -1.3,49.2 -0.5,0.9 -2.4,2.8 -4.2,4.2 -6.2,4.7 -15.4,2.7 -19.3,-4.2 -2,-3.6 -2.1,-5.2 -2.5,-58.2 -0.3,-46.4 -0.7,-55.6 -2.1,-62 -0.9,-4.1 -2.6,-13.8 -3.7,-21.5 -1.2,-7.7 -2.3,-15.6 -2.6,-17.5 -0.3,-1.9 -1.6,-4.8 -2.9,-6.3 -1.3,-1.6 -2.4,-3.2 -2.4,-3.6 0,-0.5 1.8,-2 4,-3.5 4.2,-2.8 5.1,-4 2.3,-2.9 -3.9,1.4 -10.5,6.6 -11.4,9 -0.5,1.4 -0.9,35 -0.9,83 0,72.4 -0.2,80.8 -1.6,83.9 -2,4.3 -6.5,6.7 -12.1,6.6 -4.7,0 -7.7,-1.7 -10.4,-5.9 -1.8,-2.6 -1.9,-5.7 -1.9,-47.6 0,-39 -0.2,-44.8 -1.5,-45.3 -0.8,-0.4 -2.2,-0.1 -3,0.6 -1.3,1.1 -1.5,7.5 -1.5,45.2 0,47.9 0,48.3 -5.8,51.1 -7.2,3.7 -12.9,2.5 -17.6,-3.6 l -2.6,-3.4 v -80.7 c 0,-88.1 0.2,-85.2 -5.8,-89.5 -4.4,-3.1 -6,-2.6 -2.7,0.9 l 2.9,3 -2.7,2.8 c -2.1,2.2 -2.9,4.4 -3.8,10.7 -0.6,4.4 -2,13.8 -3.1,21 -4.6,30.1 -4.8,32.3 -4.8,81.8 0,52.1 0,52 -5.7,56.1 -4,2.9 -10.5,3.3 -14.6,0.7 -6.6,-4.1 -6.7,-4.7 -6.7,-56 v -45.9 l -2.5,-0.6 c -4.3,-1.1 -3.6,-2.6 -9.4,20.9 -9.9,39.8 -18.2,71.7 -19.6,75.1 -2,5 -5.7,7.6 -11.4,8.2 -3.9,0.3 -5.2,-0.1 -8.8,-2.7 -5.3,-3.8 -6.1,-7.5 -4.1,-17.4 1.6,-7.6 10.5,-42.5 18.8,-73.8 2.8,-10.3 6.1,-26 7.5,-35.5 1.4,-9.3 3.2,-21.1 4.1,-26.2 2.1,-12.2 2,-12.4 -5.3,-10.7 -6.9,1.7 -17,1.9 -23.3,0.4 -11.3,-2.5 -25.1,-9.4 -32.2,-16.2 -3.9,-3.6 -3.9,-9.7 -0.2,-12.6 3.9,-3.1 7.2,-2.6 13.6,1.9 8.7,6 15.3,9 23,10.5 5.9,1.1 7.5,1.9 10.3,4.9 2.6,2.9 4,3.6 7,3.6 4.4,0 9.4,-2.2 12.6,-5.6 3,-3.2 2,-3 -3.9,0.6 -6.1,3.7 -10.4,3.9 -13.7,0.5 -2.9,-2.8 -3.1,-4.5 -0.9,-9.1 1.8,-3.9 6.4,-6.9 18.2,-12 8.8,-3.8 8.8,-3.8 10.1,-2.2 z" />
</svg>
